<svg width="120" height="103" viewBox="0 0 120 103" fill="none" xmlns="http://www.w3.org/2000/svg">
<path d="M2.07175 54.3913H117.929C119.073 54.3913 120 53.4617 120 52.3139C120 51.166 119.068 50.2365 117.929 50.2365H2.07175C0.927316 50.2365 0.000488281 51.166 0.000488281 52.3139C0.000488281 53.4617 0.93251 54.3913 2.07175 54.3913Z" fill="black"/>
<path d="M117.935 61.8912H2.07126C0.92683 61.8912 0 62.826 0 63.9687C0 65.1113 0.92683 66.0461 2.07126 66.0461H117.928C119.073 66.0461 120 65.1113 120 63.9687C120 62.826 119.074 61.8912 117.934 61.8912H117.935Z" fill="black"/>
<path d="M25.1342 72.0828C23.9898 72.0828 23.063 73.0176 23.063 74.1602V100.444C23.063 101.592 23.9898 102.522 25.1342 102.522C26.2787 102.522 27.2055 101.587 27.2055 100.444V74.1602C27.2055 73.0184 26.2735 72.0828 25.1342 72.0828Z" fill="black"/>
<path d="M18.1117 12.5775L23.0632 7.6165V41.5453C23.0632 42.6932 23.9901 43.6228 25.1345 43.6228C26.2789 43.6228 27.2057 42.6932 27.2057 41.5453V7.6165L32.152 12.5775C32.5551 12.9879 33.084 13.1905 33.612 13.1905C34.14 13.1905 34.6741 12.9879 35.0772 12.5827C35.8853 11.7722 35.8853 10.4583 35.0772 9.64773L26.5944 1.13447C26.4028 0.942288 26.1748 0.79184 25.9208 0.6875C25.4135 0.47445 24.8439 0.479668 24.3359 0.6875C24.0819 0.79098 23.8538 0.942283 23.6622 1.13447L15.1856 9.64261C14.3776 10.4531 14.3776 11.767 15.1856 12.5776C15.9937 13.3881 17.3037 13.3933 18.1118 12.5776L18.1117 12.5775Z" fill="black"/>
<path d="M48.3772 72.0828C47.2327 72.0828 46.3059 73.0176 46.3059 74.1602V100.444C46.3059 101.592 47.2327 102.522 48.3772 102.522C49.5216 102.522 50.4484 101.587 50.4484 100.444V74.1602C50.4484 73.0184 49.5216 72.0828 48.3772 72.0828Z" fill="black"/>
<path d="M41.3591 12.5773L46.3053 7.61634V41.5452C46.3053 42.693 47.2322 43.6226 48.3766 43.6226C49.521 43.6226 50.4479 42.693 50.4479 41.5452V7.61634L55.3994 12.5773C55.8034 12.9826 56.3314 13.1852 56.8646 13.1852C57.3979 13.1852 57.9267 12.9826 58.3299 12.5773C59.1379 11.7669 59.1379 10.4529 58.3299 9.64237L49.8471 1.13422C49.6555 0.942044 49.4274 0.791595 49.1734 0.687256C48.6662 0.474206 48.0966 0.479424 47.5885 0.687256C47.3345 0.790736 47.1065 0.942039 46.9149 1.13422L38.4329 9.64237C37.6249 10.4528 37.6249 11.7668 38.4329 12.5773C39.241 13.3879 40.551 13.393 41.3592 12.5773H41.3591Z" fill="black"/>
<path d="M71.6245 72.0828C70.48 72.0828 69.5532 73.0176 69.5532 74.1602V100.444C69.5532 101.592 70.4852 102.522 71.6245 102.522C72.7637 102.522 73.6957 101.587 73.6957 100.444V74.1602C73.7009 73.0184 72.7689 72.0828 71.6245 72.0828Z" fill="black"/>
<path d="M64.6063 12.5775L69.5526 7.61648V41.5453C69.5526 42.6932 70.4846 43.6228 71.6238 43.6228C72.7631 43.6228 73.6951 42.6932 73.6951 41.5453V7.62094L78.6466 12.5768C79.0506 12.982 79.5839 13.1847 80.1119 13.1847C80.6399 13.1847 81.174 12.982 81.5771 12.5768C82.3851 11.7663 82.3851 10.4472 81.5771 9.64184L73.0892 1.1337C73.0632 1.10761 73.032 1.10239 73.006 1.0763C72.83 0.915427 72.6384 0.775415 72.4155 0.681516C71.9083 0.468466 71.3387 0.468466 70.8307 0.681516C70.6078 0.775433 70.4162 0.91544 70.2454 1.07109C70.2194 1.09718 70.183 1.1024 70.157 1.12849L61.6795 9.63663C60.8715 10.4471 60.8715 11.761 61.6795 12.5716C62.4884 13.382 63.7985 13.3925 64.6066 12.5768L64.6063 12.5775Z" fill="black"/>
<path d="M94.8718 72.0828C93.7274 72.0828 92.8005 73.0176 92.8005 74.1602V100.444C92.8005 101.592 93.7326 102.522 94.8718 102.522C96.011 102.522 96.9431 101.587 96.9431 100.444V74.1602C96.9491 73.0184 96.0171 72.0828 94.8718 72.0828Z" fill="black"/>
<path d="M87.5486 12.5768L92.4897 7.62093V41.5453C92.4897 42.6932 93.4218 43.6228 94.561 43.6228C95.7002 43.6228 96.6322 42.6932 96.6322 41.5453V7.62093L101.573 12.5768C101.977 12.982 102.511 13.1847 103.039 13.1847C103.567 13.1847 104.101 12.982 104.504 12.5768C105.312 11.7663 105.312 10.4524 104.504 9.64184L96.021 1.13369C95.995 1.10761 95.9638 1.10239 95.9378 1.0763C95.7618 0.915427 95.5702 0.775415 95.3474 0.681516C94.8402 0.468466 94.2705 0.468466 93.7625 0.681516C93.5397 0.775433 93.3481 0.91544 93.1773 1.07109C93.1513 1.09718 93.1148 1.1024 93.0888 1.12849L84.606 9.63663C83.798 10.4471 83.798 11.761 84.606 12.5716C85.4149 13.382 86.7406 13.3925 87.5487 12.5768L87.5486 12.5768Z" fill="black"/>
</svg>
