<svg width="120" height="58" viewBox="0 0 120 58" fill="none" xmlns="http://www.w3.org/2000/svg">
<path fill-rule="evenodd" clip-rule="evenodd" d="M2.97256 23.9993C2.97256 23.9993 4.45997 6.5194 12.6407 9.4946C21.1938 12.0983 18.5903 25.8583 30.4905 23.6269C42.3896 21.3954 47.2242 15.0726 46.4804 12.8411C46.1081 10.9812 42.3896 3.54309 49.0837 0.940312C55.0332 -1.29114 56.1492 5.77543 65.445 13.2135V23.6269H69.1634V15.8165C70.2794 16.5604 71.0231 16.9327 72.1382 17.6765C72.5105 17.6765 72.8819 18.0488 73.2542 18.4203V26.9746H76.9726V19.908C78.46 20.6518 79.5759 21.0242 80.691 21.768V29.2061H84.4095V22.8833C85.5254 23.2556 86.6406 23.6271 88.1279 23.9994V32.925H91.475V24.7432C97.7969 26.2308 103.003 26.6031 107.093 26.9746C110.068 27.347 113.415 28.4622 116.017 29.9498C117.504 32.925 117.877 38.5041 105.605 44.4545C88.8715 53.0088 20.8221 47.0582 0.370361 44.4545C0.742644 37.0164 2.97365 23.9994 2.97365 23.9994L2.97256 23.9993ZM119.365 34.4126C124.944 51.1487 92.2202 57.4725 81.0645 57.4725C73.999 57.8448 9.66818 55.9848 9.66818 55.9848C5.20591 54.8687 0 52.6372 0 47.4305C21.5682 50.0342 89.2477 55.6124 107.095 47.0582C116.019 42.5953 118.994 38.1326 119.366 34.4134L119.365 34.4126Z" fill="black"/>
</svg>
