<svg width="100" height="96" viewBox="0 0 100 96" fill="none" xmlns="http://www.w3.org/2000/svg">
<path fill-rule="evenodd" clip-rule="evenodd" d="M27.4362 0.523446L5.62959 29.7341L69.4237 74.6735H87.325C86.9992 69.2161 84.3953 64.0803 77.8859 61.8336C72.3524 59.9076 69.0978 57.0182 65.1921 52.5243L58.6826 58.9442C56.404 61.1915 52.824 57.6602 55.102 55.0922L62.2624 48.351C60.9605 46.425 60.3095 44.499 59.6586 42.2518L51.1963 50.5977C48.9177 52.845 45.3377 49.3137 47.6157 46.7457L58.0307 36.474C57.3798 33.906 57.3798 31.3381 57.0539 28.4487L48.2659 37.4366C45.6621 39.6838 42.0815 36.1526 44.3601 33.5846L57.0539 21.3869C57.0539 18.8189 57.0539 20.2989 57.0539 17.7309L27.4365 0.521729L27.4362 0.523446ZM84.3944 85.5881C90.253 86.8721 89.9278 89.7614 83.0925 90.724C76.9081 91.6873 66.8181 91.6873 60.3084 90.724C53.4732 89.7606 53.1481 87.1927 59.0065 85.9086L58.0297 85.2666L57.0529 84.3032L55.1001 83.0192L45.336 76.2781L2.37301 45.4621C2.37301 45.4621 -0.556679 41.2888 0.0944061 38.7209C0.420258 37.7575 1.3963 35.8315 2.69816 33.9055L66.8174 79.4881L68.4452 79.8095L86.6724 80.1309C86.3466 81.7362 85.3711 84.304 84.3944 85.5881ZM88.951 84.6247C109.132 86.872 100.668 95.8599 71.7006 95.2179C30.6905 94.5759 45.3379 84.6247 48.9165 86.2301C44.3599 87.514 42.0813 89.7614 52.4971 92.0081C67.7947 95.2179 91.2292 93.292 97.0878 90.0821C102.295 86.8722 88.3001 84.6247 88.951 84.6247ZM60.6355 87.1927C55.428 87.8347 55.102 88.156 60.6355 89.1187C66.8198 90.082 76.5839 90.082 82.7692 89.1187C87.9767 88.4767 87.9767 88.1553 83.095 87.1927C82.4441 87.8347 81.7931 88.4767 81.1422 88.798L62.264 88.156L60.6355 87.1927Z" fill="black"/>
</svg>
