<svg width="120" height="63" viewBox="0 0 120 63" fill="none" xmlns="http://www.w3.org/2000/svg">
<path d="M3.73498 35.7228C7.95438 37.8017 21.5514 45.5373 40.3622 46.2884C59.1736 47.0396 78.7732 39.4636 84.1651 36.4703C89.5559 33.4774 100.558 26.0156 107.335 19.3514C107.335 19.3514 94.6164 35.3021 71.5293 43.3289C71.5293 43.3289 48.0593 51.9057 25.354 46.768C25.354 46.768 3.39806 40.6028 1.26781 38.8048C-0.861188 37.0032 -0.482063 33.6484 3.73492 35.7228H3.73498ZM119.973 11.9174C119.425 6.72403 121.802 -5.70776 111.934 4.3124C102.065 14.3302 94.0247 22.3061 81.2296 27.3158C75.3343 29.6235 67.4195 31.9692 59.6892 33.741L53.0108 38.8187L57.7379 34.1756C49.3938 35.9864 41.4814 37.0542 36.8181 36.5919C29.0342 35.8142 23.8676 39.6242 22.0291 41.9066C27.5804 43.5637 33.9502 44.9214 40.4045 45.1758C41.2549 45.2116 42.1304 45.2267 43.0048 45.2267C60.2928 45.2267 78.1456 38.545 83.6396 35.4943C88.9257 32.5591 100.682 24.9032 107.338 18.5718C112.734 13.4409 107.537 19.7887 106.154 21.4481C104.768 23.1076 92.423 37.3539 71.8879 44.3831C71.7616 44.4271 57.6317 49.5209 40.88 49.5209C35.307 49.5209 30.0028 48.9593 25.1175 47.8557L25.0867 47.8464C24.8715 47.791 23.1763 47.3541 20.7274 46.6735C21.8853 49.6665 25.8063 57.9856 34.4419 60.7049C45.0401 64.0445 56.9215 62.0037 62.038 60.7049C62.038 60.7049 51.2554 60.8944 43.0308 54.9568C43.0308 54.9568 60.0273 60.3339 70.627 58.1116C81.2275 55.8801 92.559 50.3205 101.513 43.0842C101.513 43.0842 88.1726 45.6819 83.2385 43.0842C83.2385 43.0842 101.329 42.5272 106.904 38.0745C112.483 33.6219 120.522 17.1109 119.973 11.9176L119.973 11.9174Z" fill="black"/>
</svg>
