<svg width="120" height="44" viewBox="0 0 120 44" fill="none" xmlns="http://www.w3.org/2000/svg">
<path fill-rule="evenodd" clip-rule="evenodd" d="M15.3714 1.91665C7.56271 11.0942 0.0756853 22.4752 0.000609527 30.982C-0.0286305 34.1828 0.9924 36.977 3.44145 39.0935C6.96606 42.1416 10.8494 43.2164 14.7139 43.2227C20.3611 43.2306 25.9689 40.9505 30.3597 39.1923C37.7542 36.2328 119.494 0.708166 119.494 0.708166C120.283 0.312719 120.135 -0.180006 119.148 0.0659622C118.75 0.165615 30.1613 24.1922 30.1613 24.1922C28.4833 24.6672 26.7494 24.9156 25.0056 24.9309C18.1974 24.9712 12.1392 21.1892 12.1882 13.2193C12.2071 10.1008 13.161 6.34013 15.3714 1.91665Z" fill="white"/>
</svg>
